<?xml version="1.0" encoding="utf-8"?>
<!-- Uploaded to: SVG Repo, www.svgrepo.com, Generator: SVG Repo Mixer Tools -->
<svg width="800px" height="800px" viewBox="-103.28 0 437.712 437.712" xmlns="http://www.w3.org/2000/svg"><defs><style>.a{fill:#ffffff;}.b{fill:#7a7473;}.c{fill:#bdbdbd;}.d{fill:#211715;}.e{fill:#5394cf;}</style></defs><path class="a" d="M17.4,2.625c-.006,12.4,1.3,109.516,1.293,115.868,18.848-.008,185.222-.99,196.4-.995,0-10.15-.306-107.264-.4-115.494C204.823,1.982,34.276,2.5,17.4,2.625Z"/><path class="a" d="M139.867,249.408c-2.246-1.747-4.38-3.779-5.118-5.609a19.444,19.444,0,0,1-.942-6.942c7.682-4.669,13.566-14.646,14.673-17.671a31.642,31.642,0,0,0,1.347-5,4.222,4.222,0,0,0,5.219-.518,13.474,13.474,0,0,0,3.456-4.6,21.22,21.22,0,0,0,2.085-11.265,7.065,7.065,0,0,0-.761-2.844,5.009,5.009,0,0,0-3.619-2.37,5.307,5.307,0,0,0-4.236,1.272S155.69,164.7,115.1,164.7c-36.444,0-34.995,29.66-34.995,29.66a5.3,5.3,0,0,0-4.254-1.212,5.012,5.012,0,0,0-3.585,2.42,7.071,7.071,0,0,0-.721,2.854,21.222,21.222,0,0,0,2.243,11.235,13.489,13.489,0,0,0,3.52,4.554c1.29,1.014,2.935,2.134,5.12,1.239a35.964,35.964,0,0,0,7.351,14.563,30.235,30.235,0,0,0,9.372,7.569,19.266,19.266,0,0,1-.938,6.961,15.093,15.093,0,0,1-4.38,5.176s2.3,17.944,20.675,17.944S139.867,249.408,139.867,249.408Z"/><path class="b" d="M145.552,152.968c5.455,3.34,8.276,8.19,10.081,12.708,2.683,6.715,3.453,18.109.647,26.921a5.3,5.3,0,0,0-4.309,1.261l.092-.127c-.674.464-.962.364-.99.077-.043-.423-.093-.854-.162-1.274a34.642,34.642,0,0,0-.854-3.711,43.882,43.882,0,0,0-4.494-9.76,18.518,18.518,0,0,0-12.336-8.948,34.543,34.543,0,0,0-5.823-.219c-1.737.027-3.522.124-5.438.039-3.8-1.771-9.79-1.318-13.686.266-2.8,1.14-5.314,3.125-8.36,3.376-2.742.226-5.837-.944-8.076.548a6.663,6.663,0,0,0-1.819,2.092,52.8,52.8,0,0,0-2.83,5.044q-.634,1.289-1.2,2.618c-.355.836-.936,2.036-1.338,2.856-.731,1.488-1.729,3.695-2.411,5.208-.428.95-1.051,3.378-2.209,2.2l.064.218a5.222,5.222,0,0,0-5.15-.964c-3.245-6.866-3.313-19.191-1.1-27.708,2.144-8.263,8.085-17.311,14.761-21.066l6.759-4.643c6.729-4.908,22.26-6.728,32.983-2.668,6.186,2.342,10.455,6.343,12.263,10.318Z"/><path class="a" d="M4.514,147.768c-.06-.163-.111-.3-.152-.413a1.048,1.048,0,0,1,.59-1.3c4.58-2.08,17.71-7.73,21.46-8.84a1.036,1.036,0,0,1,1.31.6c.34.91,1.69,4.66,2.33,6.461-6.639,2.581-16.5,6.864-23.179,10.313C6.234,152.615,5.045,149.229,4.514,147.768Z"/><path class="a" d="M202.788,136.256c-.508,1.5-1.623,4.711-2.3,6.644a217.322,217.322,0,0,1,24.011,8.273c.723-2.333,2.061-6.329,2.391-7.328a1.024,1.024,0,0,0-.65-1.26c-4.66-1.89-18.15-6.7-21.94-7.65a1.044,1.044,0,0,0-1.29.65C202.967,135.725,202.89,135.956,202.788,136.256Z"/><path class="c" d="M117.357,315.526q-.077.227-.155.453c-4.247-10.7-7.118-15.467-10.707-26.095C101.808,276,95.9,260.6,92.567,246.334a50.171,50.171,0,0,0-5.01,3.5c-1.251-1.335-2.257-2.605-3.288-3.808a1.318,1.318,0,0,0-1.621-.463c-1.113.47-1.844.854-2.925,1.393l-5.62-2.209c-5.4-10.16-15.541-34.2-22.132-52.113-8.037-21.842-14.006-35.528-18.343-47.608a1.954,1.954,0,0,0-2.559-1.134A263.72,263.72,0,0,0,5.321,155.405a1.949,1.949,0,0,0-.973,2.316c3.8,11.467,8.682,24.138,20.821,56.869,6.085,18.813,20.3,55.339,24.445,67.861,2.511,10.389,8.011,31.3,10.52,41.788,1.173,4.9,2.667,9.62,2.667,15.425,0,5.3-2.021,10.658-3.605,15.717-5.137,16.411-11.143,34-16.895,51.466a7.259,7.259,0,0,0-.556,3.543c.37,1.44,1.9,2.486,3.278,3.056,7.932,3.287,38.643,5.608,46.445,4.912,5.432-.485,8.225-3.405,11.539-7.723s12.461-24.475,15.349-30.805l1.03-2.256c3.095,16.361,5.864,31.184,8.645,35.651,1.074,1.726,2,3.168,3.807,4.071,1.192.6,3.362,1.054,6.963,1.185,13.063.477,40.741-3.777,49.686-7.791a2,2,0,0,0,.832-2.431c-3.629-14.222-6.518-21.037-8.878-30.036-2.438-9.3-5.7-21.468-8.751-31.89a54.61,54.61,0,0,1-1.671-8.272,56.776,56.776,0,0,1,.782-8.765c4.038-20.12,7.555-28.108,12.643-47.709,4.793-14.085,17.2-53.142,23.039-70.19,8.959-26.18,11.061-31.33,19.522-57.638a1.984,1.984,0,0,0-1.139-2.429,214.29,214.29,0,0,0-25.059-8.613,1.948,1.948,0,0,0-2.323,1.051c-4.469,10.6-8.287,22.84-15.476,42.942-5.812,16.25-13.4,36.685-20.166,50.733l-5.658,5.235a5.737,5.737,0,0,1-4.892.165,2.321,2.321,0,0,0-1.248-.336,1.87,1.87,0,0,0-.87.5,35.1,35.1,0,0,0-5.32,5.637c-1.221-.883-2.409-1.666-3.467-2.305-3.328,14.268-9.241,29.669-13.928,43.55C123.3,299.253,120.464,306.521,117.357,315.526Z"/><path class="d" d="M163.569,238.453c4.461-9.288,8.3-18.878,11.986-28.493,3.875-10.1,7.548-20.275,11.131-30.481,2.985-8.5,5.841-17.05,8.947-25.508q.944-2.571,1.936-5.122.452-1.155.917-2.3.2-.5.41-1c.085-.207.179-.412.258-.622.1-.277.207-.321.118-.282-.122.054.253.075.534.151q.637.172,1.274.353,1.5.423,2.992.879,3.418,1.038,6.8,2.184,3.467,1.168,6.9,2.442a49.567,49.567,0,0,1,6.084,2.412c.363.194.331.005.143.406a17.874,17.874,0,0,0-.667,2.072q-.694,2.151-1.392,4.3-1.14,3.507-2.3,7.01c-2.46,7.452-5,14.875-7.581,22.287q-8.052,23.173-15.695,46.475c-4.722,14.5-9.338,29.034-14.193,43.489q-.535,1.6-1.082,3.187c-.841,2.439,3.022,3.487,3.857,1.063,4.813-13.972,9.231-28.085,13.8-42.138q7.846-24.143,16.164-48.115c2.617-7.53,5.227-15.062,7.741-22.627q2.49-7.493,4.9-15.008c.438-1.361.8-2.632.143-3.992a4.768,4.768,0,0,0-2.746-2.256c-2.2-.93-4.425-1.8-6.666-2.626q-6.831-2.523-13.814-4.622c-1.869-.56-4.323-1.7-6.282-1.169-2.285.623-2.881,2.992-3.667,4.94-3.039,7.534-5.636,15.241-8.3,22.914-7.142,20.612-14.282,41.346-23.128,61.3q-1.447,3.263-2.988,6.483c-1.109,2.31,2.339,4.341,3.454,2.019Z"/><path class="d" d="M52.047,283.488c-1.888-6.058-4.176-12-6.371-17.951-3.214-8.714-6.468-17.414-9.662-26.135-2.936-8.015-5.864-16.04-8.527-24.15-1.81-5.511-4-10.917-6.024-16.353q-2.547-6.843-5.1-13.684c-2.387-6.416-4.779-12.832-7.075-19.282q-1.29-3.621-2.52-7.262a7.327,7.327,0,0,1-.517-1.456,8.495,8.495,0,0,1,.768-.452q.8-.425,1.616-.835c2.326-1.181,4.685-2.3,7.056-3.387,4.665-2.14,9.383-4.171,14.16-6.049.484-.191.969-.413,1.465-.569-.31.1.4-.164.375-.168.092.014.227.093.072-.019.2.142.323.9.4,1.118q.264.723.532,1.447,1.039,2.8,2.123,5.584c3.558,9.183,7.271,18.3,10.794,27.5,7.712,20.13,15.071,40.421,24.478,59.849.735,1.517,1.488,3.027,2.278,4.517,1.206,2.275,4.66.256,3.454-2.019-4.357-8.218-7.99-16.853-11.578-25.426-4.437-10.6-8.5-21.332-12.538-32.089-3.787-10.083-7.8-20.076-11.744-30.1-1.516-3.859-2.9-7.769-4.413-11.628a4.068,4.068,0,0,0-2.718-2.6,5.945,5.945,0,0,0-3.746.628c-2.381.931-4.743,1.908-7.1,2.906-4.979,2.109-9.924,4.316-14.759,6.74-2.232,1.119-5.133,2.216-4.967,5.217a16.311,16.311,0,0,0,1.212,4.028c1.954,5.717,4.035,11.39,6.129,17.057Q14.6,191.98,19.657,205.473c3.347,9,6.387,18.1,9.643,27.137,5.859,16.259,12.225,32.351,17.823,48.7.368,1.075.729,2.153,1.067,3.238.764,2.45,4.627,1.4,3.857-1.063Z"/><path class="d" d="M62.732,420.443c-.357,5.092-.753,10.181-1.154,15.269a2.016,2.016,0,0,0,2,2,2.039,2.039,0,0,0,2-2c.4-5.088.8-10.177,1.154-15.269a2.018,2.018,0,0,0-2-2,2.038,2.038,0,0,0-2,2Z"/><path class="d" d="M171.5,435.082c-.581-5.67-1.161-11.341-1.7-17.017a2.055,2.055,0,0,0-2-2,2.014,2.014,0,0,0-2,2c.535,5.676,1.115,11.347,1.7,17.017a2.057,2.057,0,0,0,2,2,2.013,2.013,0,0,0,2-2Z"/><path class="d" d="M131.813,237.567c.046,2.615.208,5.461,1.479,7.81a18.739,18.739,0,0,0,5.161,5.445,2.055,2.055,0,0,0,2.829,0,2.021,2.021,0,0,0,0-2.828,30.528,30.528,0,0,1-2.694-2.334c-.38-.376-.746-.766-1.088-1.176-.022-.026-.257-.319-.138-.165s-.1-.135-.116-.163c-.15-.212-.292-.429-.42-.654-.078-.135-.32-.645-.149-.235-.1-.242-.185-.492-.263-.743a12.492,12.492,0,0,1-.371-1.6c-.024-.139-.046-.278-.065-.417.03.219,0-.019-.008-.1-.033-.324-.063-.648-.085-.973-.042-.621-.061-1.243-.072-1.865a2,2,0,0,0-4,0Z"/><path class="d" d="M95.244,251.137a16.154,16.154,0,0,0,4.794-5.82,20.1,20.1,0,0,0,1.114-7.73,2,2,0,0,0-4,0c0,1.179-.053,2.35-.156,3.525q-.046.375-.008.111c-.02.141-.041.282-.065.423q-.069.414-.163.824c-.061.267-.131.531-.212.792-.039.128-.081.256-.126.382-.082.208-.094.248-.038.121a4.564,4.564,0,0,0-.208.421c-.119.222-.251.439-.39.65a6.492,6.492,0,0,1-.816,1.046,23.922,23.922,0,0,1-2.555,2.427,2.009,2.009,0,0,0,0,2.828,2.054,2.054,0,0,0,2.829,0Z"/><path class="d" d="M142.341,146.624c-2.986-6.372-9.93-10.613-16.582-12.187a42.461,42.461,0,0,0-21.7,1.086,31.838,31.838,0,0,0-9.383,4.343,2.056,2.056,0,0,0-.717,2.736,2.014,2.014,0,0,0,2.736.717c4.646-3.334,10.657-4.96,16.278-5.556,6.67-.707,13.458.057,19.233,3.683a17.4,17.4,0,0,1,6.677,7.2,2.018,2.018,0,0,0,2.737.717,2.045,2.045,0,0,0,.717-2.736Z"/><path class="d" d="M148,212.312a19.431,19.431,0,0,1-1.107,5.316c-.15.463-.3.925-.477,1.377.126-.321.066-.146-.037.067s-.2.419-.3.626a43.669,43.669,0,0,1-3.67,5.977c-3.332,4.646-7.8,9.514-13.452,11.191-2.462.731-1.414,4.593,1.063,3.857,6.619-1.966,11.723-7.353,15.666-12.784,3.341-4.6,6.122-9.81,6.314-15.627.086-2.575-3.914-2.572-4,0Z"/><path class="d" d="M79.814,212.943a40.121,40.121,0,0,0,7.968,17.795c4.26,5.241,10.137,9.676,16.958,10.686a2.065,2.065,0,0,0,2.46-1.4,2.014,2.014,0,0,0-1.4-2.46c-6.218-.921-11.322-4.868-15.192-9.658a36.284,36.284,0,0,1-6.94-16.029c-.492-2.525-4.348-1.456-3.857,1.063Z"/><path class="d" d="M153.385,195.272a3.2,3.2,0,0,1,4.714.693,6.956,6.956,0,0,1,.569,3.18,18.363,18.363,0,0,1-.24,3.688,19.191,19.191,0,0,1-2.517,6.8c-.91,1.469-2.446,3.6-4.4,3.093-2.494-.647-3.558,3.21-1.064,3.857,3.683.954,6.541-1.451,8.527-4.326a22.332,22.332,0,0,0,3.556-10.033c.385-3.271.394-7.5-2.279-9.867a7.358,7.358,0,0,0-9.69.091,2.015,2.015,0,0,0,0,2.828,2.041,2.041,0,0,0,2.828,0Z"/><path class="d" d="M81.516,192.95a7.366,7.366,0,0,0-9.691.005c-2.717,2.455-2.574,6.78-2.131,10.11a21.915,21.915,0,0,0,3.867,10.058c2.077,2.811,5.2,5.279,8.883,4.441,2.509-.572,1.447-4.429-1.063-3.857-1.912.435-3.84-1.791-4.785-3.192a18.874,18.874,0,0,1-2.78-6.87,18.235,18.235,0,0,1-.339-3.627,7.47,7.47,0,0,1,.513-3.437,3.2,3.2,0,0,1,4.7-.8,2.056,2.056,0,0,0,2.828,0,2.015,2.015,0,0,0,0-2.828Z"/><path class="d" d="M87.6,142.9c-6.28,3.611-10.87,10.091-13.7,16.633A48.79,48.79,0,0,0,70.39,181.1,37.866,37.866,0,0,0,72.5,192.7a2.057,2.057,0,0,0,2.46,1.4,2.015,2.015,0,0,0,1.4-2.46c-2.289-6.058-2.383-12.95-1.688-19.314a38.681,38.681,0,0,1,7.169-18.669,25.719,25.719,0,0,1,7.782-7.3c2.232-1.283.219-4.74-2.018-3.454Z"/><path class="d" d="M144.543,154.7c11.6,7.251,13.432,24.053,10.158,36.2-.671,2.488,3.187,3.55,3.857,1.063,3.766-13.965,1.179-32.475-12-40.714-2.189-1.369-4.2,2.091-2.019,3.454Z"/><path class="d" d="M121.633,168.772a18.218,18.218,0,0,0-11.676-1.2,22.829,22.829,0,0,0-5.3,2.163,13.173,13.173,0,0,1-4.934,1.852c-1.8.14-3.6-.33-5.4-.218a6.781,6.781,0,0,0-5.038,2.448c-2.468,3.047-3.928,6.81-5.594,10.313-.757,1.591-1.389,3.231-2.131,4.827-.406.875-.934,1.688-1.325,2.569-.123.277-.227.562-.358.835a2.731,2.731,0,0,0-.228.447c-.058.226-.045-.034.1-.1l1.009-.273.695.3c-1.941-1.672-4.783,1.145-2.828,2.828a2.741,2.741,0,0,0,4.291-.448,28.063,28.063,0,0,0,1.824-3.565c1.576-3.167,2.791-6.512,4.381-9.677a38.593,38.593,0,0,1,2.958-5.142c1.111-1.551,2.672-1.437,4.419-1.293a15.671,15.671,0,0,0,5.568-.223,28.9,28.9,0,0,0,5.349-2.406,14.068,14.068,0,0,1,12.2-.58,2.061,2.061,0,0,0,2.736-.717,2.016,2.016,0,0,0-.718-2.737Z"/><path class="d" d="M112.4,160.891a12.678,12.678,0,0,1,8.738,2.617,12.035,12.035,0,0,1,1.562,1.44c.111.121.218.246.324.372.073.086.267.35.1.126q.279.384.527.787a15.889,15.889,0,0,1,.85,1.648c-.072-.17.131.333.126.319.062.16.122.322.181.484.136.372.264.747.389,1.123a2.046,2.046,0,0,0,2.46,1.4,2.021,2.021,0,0,0,1.4-2.461A16.069,16.069,0,0,0,112.4,156.891a2.048,2.048,0,0,0-2,2,2.016,2.016,0,0,0,2,2Z"/><path class="d" d="M133.134,171.485c5.46,1.274,8.88,5.294,11.53,10a36.733,36.733,0,0,1,3.577,8.275c.223.816.426,1.639.59,2.47.142.721.137,1.534.35,2.234.547,1.8,2.534,1.822,3.891.992,2.193-1.341.186-4.8-2.019-3.454a.216.216,0,0,1-.259.119h1.063l-.133-.033.883.514-.084-.084.515.882c-.417-1.441-.492-3.03-.885-4.5a31.889,31.889,0,0,0-1.445-4.139,47.875,47.875,0,0,0-4.078-7.753c-2.991-4.552-7.025-8.122-12.433-9.383-2.5-.584-3.573,3.272-1.063,3.857Z"/><path class="a" d="M118.239,252.507a.486.486,0,0,0-.135.138h-3.1a4.011,4.011,0,0,0-1.372-.776c-7.057-2.839-12.945-7.168-15.524-10.635-2.544,2.339-3.353,4.148-5.007,7.317,3.4,13.635,8.945,28.168,13.391,41.333,3.56,10.542,6.334,17.542,10.528,27.942q4.719-13.971,9.436-27.942c4.467-13.23,10.048-27.842,13.442-41.536-1.585-3.044-2.412-4.825-4.9-7.114-2.579,3.467-8.467,7.8-15.524,10.635A6.131,6.131,0,0,0,118.239,252.507Z"/><path class="a" d="M128.784,264.443a69.113,69.113,0,0,0,10.688-16.922A19.314,19.314,0,0,0,135,241.234c-2.579,3.467-8.467,7.8-15.524,10.635a4,4,0,0,0-1.372.776c-.169.315.16.591.314.839.243.388,1.435,1.385,3.464,3.612C124.183,259.622,126.879,262.167,128.784,264.443Z"/><path class="a" d="M104.326,264.443a69.079,69.079,0,0,1-10.687-16.922,19.3,19.3,0,0,1,4.472-6.287c2.579,3.467,8.467,7.8,15.524,10.635a4.011,4.011,0,0,1,1.372.776c.168.315-.16.591-.315.839-.242.388-1.435,1.385-3.463,3.612C108.927,259.622,106.231,262.167,104.326,264.443Z"/><path class="e" d="M110.924,264.909a8.849,8.849,0,0,1,.346,2.12c0,.411-2.007,15.062-3.418,26.7,2.995,8.111,5.651,12.929,9.35,22.254l.156-.453c2.846-8.251,5.465-15.064,8.317-23.352-1.775-11.866-3.652-24.257-3.64-24.914a12.9,12.9,0,0,1,.83-3.757c.5-1.527.8-2.862,1.127-4.174-.718-.741-1.431-1.488-2.11-2.233-.99-1.087-1.781-1.88-2.359-2.454l-1,0c-1.742.006-3.191.009-4.951.01-.578.572-1.363,1.362-2.345,2.44-.526.577-1.072,1.155-1.625,1.73.388,2.017.661,3.291,1.09,5.126C110.763,264.275,110.844,264.586,110.924,264.909Z"/><path class="d" d="M111.76,268.932c3.319,0,6.639-.074,9.958-.075a2,2,0,1,0,0-4c-3.319,0-6.639.073-9.958.075a2,2,0,1,0,0,4Z"/><path class="d" d="M107.832,260.162c.379,1.91.836,3.8,1.266,5.7a4.957,4.957,0,0,1,.105,1.787c-.226,1.868-.483,3.733-.728,5.6-.87,6.614-1.737,13.228-2.546,19.849a2.01,2.01,0,0,0,2,2,2.049,2.049,0,0,0,2-2c.821-6.724,1.7-13.44,2.586-20.155.238-1.813.537-3.631.707-5.452a8.565,8.565,0,0,0-.267-2.69c-.426-1.9-.887-3.786-1.266-5.7-.5-2.523-4.357-1.455-3.857,1.063Z"/><path class="d" d="M119.333,252.647l-5.905.012a2,2,0,0,0,0,4l5.905-.012a2,2,0,1,0,0-4Z"/><path class="d" d="M127.605,291.657c-.952-6.365-1.916-12.728-2.848-19.1q-.227-1.548-.446-3.1-.083-.58-.162-1.16c-.027-.206.039.319-.016-.129-.013-.11-.029-.22-.041-.331-.255-2.192.955-4.491,1.485-6.586.631-2.5-3.226-3.562-3.857-1.064-.61,2.412-1.865,4.955-1.648,7.487.153,1.774.479,3.55.736,5.312.958,6.579,1.957,13.153,2.94,19.729a2.013,2.013,0,0,0,2.46,1.4,2.049,2.049,0,0,0,1.4-2.46Z"/><path class="d" d="M114.537,317.608c-1.33,4.018-2.787,8.132-2.931,12.407a47.365,47.365,0,0,0,.493,6.174c.8,8.1,1.672,16.187,2.689,24.259.613,4.866,1.266,9.729,2.084,14.565a2.017,2.017,0,0,0,2.461,1.4,2.046,2.046,0,0,0,1.4-2.46c-2.361-13.963-3.838-28.152-5.071-42.258-.388-4.443,1.363-8.874,2.736-13.021.811-2.449-3.051-3.5-3.857-1.063Z"/><path class="d" d="M138.459,245.8a287.238,287.238,0,0,1-8.666,28.375c-3.225,9.289-6.381,18.6-9.732,27.849-1.878,5.181-3.758,10.361-5.524,15.582-.827,2.443,3.035,3.492,3.857,1.063,6.324-18.692,13.449-37.114,19.449-55.919,1.673-5.242,3.214-10.528,4.473-15.887.588-2.5-3.268-3.572-3.857-1.063Z"/><path class="d" d="M139.378,248.061a49.657,49.657,0,0,1,6.772,4.927,34.815,34.815,0,0,1,3.117,3.041,16.105,16.105,0,0,1,1.206,1.489c.154.22.3.444.445.672.075.121.407.871.392.527l.273-1.01-.2.292.718-.718c-2.134,1.4-4.255,2.9-6.474,4.162a2.017,2.017,0,0,0-.405,3.141c1.84,1.667,3.671,3.346,5.418,5.111.208.21.916.895.93.936q-.035-.546-.254.17l-.419.79q-.837,1.575-1.679,3.146-3.362,6.274-6.836,12.487-7.308,13.023-15.351,25.61c-1.394,2.173,2.067,4.181,3.454,2.018q6.847-10.68,13.139-21.7,2.937-5.138,5.771-10.335c1.907-3.489,3.95-6.96,5.661-10.549,1.119-2.35-.123-3.927-1.752-5.563-1.7-1.7-3.471-3.332-5.253-4.947l-.405,3.142c1.188-.674,2.307-1.454,3.436-2.221a23.426,23.426,0,0,0,3.442-2.254c2.029-2.028-.5-4.913-1.85-6.545a45.039,45.039,0,0,0-11.281-9.27c-2.2-1.344-4.216,2.114-2.019,3.454Z"/><path class="d" d="M90.638,246.865a290.472,290.472,0,0,0,8.82,28.819c3.084,8.872,5.932,17.857,9.657,26.487,1.906,4.415,3.915,8.781,5.718,13.241a2.065,2.065,0,0,0,2.46,1.4,2.013,2.013,0,0,0,1.4-2.461c-3.259-8.061-7.122-15.861-9.958-24.091-3.253-9.439-6.651-18.835-9.692-28.345-1.7-5.315-3.268-10.675-4.545-16.11-.588-2.5-4.446-1.444-3.857,1.063Z"/><path class="d" d="M91.557,244.607a43.78,43.78,0,0,0-11.23,9.359c-1.328,1.637-3.772,4.464-1.769,6.468a24.792,24.792,0,0,0,3.388,2.248c1.1.769,2.19,1.55,3.358,2.215l-.405-3.142c-1.552,1.407-3.1,2.822-4.592,4.29-1.29,1.267-2.935,2.568-2.885,4.539a6.5,6.5,0,0,0,.938,2.633q.69,1.4,1.4,2.784,1.4,2.724,2.856,5.414c4,7.375,8.316,14.573,12.768,21.682q3.984,6.363,8.094,12.644c1.4,2.149,4.864.147,3.454-2.019-5.615-8.622-11.137-17.31-16.3-26.211-2.431-4.19-4.782-8.427-7-12.731q-.821-1.585-1.616-3.185c-.131-.264-.261-.529-.392-.793q-.2-.716-.238-.171c.015-.042.721-.725.93-.936,1.747-1.765,3.578-3.444,5.418-5.111a2.017,2.017,0,0,0-.405-3.141c-2.184-1.242-4.239-2.774-6.341-4.151l.718.718-.2-.291.273,1.009c-.015.34.286-.358.317-.41.169-.28.35-.554.538-.823A16.137,16.137,0,0,1,83.74,256.1a34.8,34.8,0,0,1,3.13-3.11,47.172,47.172,0,0,1,6.706-4.932c2.194-1.339.187-4.8-2.019-3.454Z"/><path class="d" d="M130.313,265.966a74.633,74.633,0,0,0,8.915-13.037q.918-1.738,1.753-3.52a3.955,3.955,0,0,0,.67-2.2,6.14,6.14,0,0,0-.824-1.863,21.373,21.373,0,0,0-4.24-5.632,2.038,2.038,0,0,0-3.141.405,25.848,25.848,0,0,1-6.343,5.514,47.766,47.766,0,0,1-4.787,2.772,51.187,51.187,0,0,0-4.965,2.305c-3.209,2.09.461,4.993,2.04,6.638,2.72,2.833,5.555,5.624,8.094,8.621,1.666,1.967,4.483-.874,2.828-2.828-2.053-2.425-4.367-4.611-6.527-6.938-.911-.983-1.822-1.962-2.773-2.907l-.8-.8c-.092-.09-.173-.188-.26-.282.438.473.016,0-.135-.273l.273,1.009.028-.305-.585,1.415a11.089,11.089,0,0,1,2.542-1.131q1.332-.591,2.626-1.258a46.971,46.971,0,0,0,5.039-3,30.281,30.281,0,0,0,7.16-6.532l-3.141.405a20.878,20.878,0,0,1,4.2,5.941v-2.019a74.066,74.066,0,0,1-10.475,16.676,2.054,2.054,0,0,0,0,2.828A2.015,2.015,0,0,0,130.313,265.966Z"/><path class="d" d="M105.626,263.138a74.03,74.03,0,0,1-10.475-16.676v2.019a20.858,20.858,0,0,1,4.2-5.941l-3.141-.405a30.257,30.257,0,0,0,7.159,6.532,46.984,46.984,0,0,0,5.04,3q1.293.667,2.625,1.258a11.1,11.1,0,0,1,2.543,1.131l-.586-1.415.028.305.273-1.009c-.109.2-.662.8-.135.273-.09.091-.167.193-.259.282-.24.233-.473.473-.71.709-.983.974-1.924,1.982-2.865,3-2.159,2.327-4.473,4.513-6.527,6.938-1.654,1.953,1.162,4.8,2.829,2.828,2.539-3,5.373-5.788,8.093-8.621,1.579-1.644,5.258-4.543,2.041-6.638a50.968,50.968,0,0,0-4.966-2.305,47.751,47.751,0,0,1-4.786-2.772,25.827,25.827,0,0,1-6.343-5.514,2.039,2.039,0,0,0-3.142-.405,21.132,21.132,0,0,0-4.158,5.48,9,9,0,0,0-.87,1.749,3.29,3.29,0,0,0,.548,2.286q.877,1.872,1.84,3.7a74.628,74.628,0,0,0,8.914,13.037,2.015,2.015,0,0,0,2.829,0A2.043,2.043,0,0,0,105.626,263.138Z"/><path class="d" d="M128.1,326.645a4.646,4.646,0,0,1,.556.592l-.312-.405a3.933,3.933,0,0,1,.45.763l-.2-.478a3.732,3.732,0,0,1,.255.92l-.071-.532a4.1,4.1,0,0,1,0,1.026l.071-.531a4.506,4.506,0,0,1-.3,1.082l.2-.478a3.687,3.687,0,0,1-.434.766l.313-.405a3.248,3.248,0,0,1-.571.565l.405-.313a3.9,3.9,0,0,1-.811.463l.478-.2a4.6,4.6,0,0,1-1.055.284l.532-.072a4.793,4.793,0,0,1-1.232,0l.532.072a4.257,4.257,0,0,1-1.01-.269l.477.2a3.331,3.331,0,0,1-.688-.394l.405.313a4.077,4.077,0,0,1-.67-.669l.312.405a3.541,3.541,0,0,1-.448-.766l.2.478a3.319,3.319,0,0,1-.194-.725l.071.532a3.542,3.542,0,0,1,0-.879l-.072.531a4.389,4.389,0,0,1,.3-1.071l-.2.478a5.516,5.516,0,0,1,.7-1.167l-.313.4a3.4,3.4,0,0,1,.539-.553l-.4.312a3.665,3.665,0,0,1,.741-.433l-.478.2a4.312,4.312,0,0,1,1.086-.293l-.531.071a4.345,4.345,0,0,1,1.069,0l-.531-.072a3.891,3.891,0,0,1,.88.235l-.478-.2a3.312,3.312,0,0,1,.719.419l-.4-.312c.04.031.079.064.117.1a2.13,2.13,0,0,0,1.415.586,2,2,0,0,0,1.414-3.414,5.581,5.581,0,0,0-3.59-1.375,5.863,5.863,0,0,0-3.247.889,6.221,6.221,0,0,0-2.618,6.291,5.431,5.431,0,0,0,2.245,3.175,6.048,6.048,0,0,0,8.367-1.918,6.041,6.041,0,0,0,.706-3.233,6.106,6.106,0,0,0-.609-2.21,5.45,5.45,0,0,0-1.254-1.619,2.106,2.106,0,0,0-1.414-.586,2,2,0,0,0-1.415,3.414Z"/><path class="d" d="M181.687,280.394c-2.148,8.309-4.63,16.517-7.013,24.759-1.079,3.727-2.106,7.469-3.041,11.236-1.081,4.36-2.222,8.786-2.907,13.228a35,35,0,0,0-.619,9.352,69.009,69.009,0,0,0,2.441,10.606c2.613,9.069,5.07,18.183,7.473,27.309,1.778,6.755,4.018,13.353,6.05,20.032q.924,3.033,1.776,6.087.482,1.727.939,3.459a14.189,14.189,0,0,1,.663,2.562c.007-.058-.413.125-.248.059q-.318.129-.639.25c-.572.216-1.15.416-1.732.606-1.323.433-2.663.812-4.009,1.164a172.359,172.359,0,0,1-20.556,3.878,138.649,138.649,0,0,1-20.143,1.532,30.526,30.526,0,0,1-5.326-.407,5.487,5.487,0,0,1-3.839-2.09,18.49,18.49,0,0,1-3.218-6.91c-2.488-8.308-3.937-16.954-5.552-25.462q-.73-3.846-1.458-7.694c-.479-2.526-4.335-1.457-3.857,1.063,1.829,9.636,3.486,19.337,5.849,28.86,1.431,5.767,3.314,14.012,9.912,15.839,3.366.932,7.051.868,10.52.775s6.932-.364,10.383-.713a213.456,213.456,0,0,0,22.568-3.462c3.067-.647,6.127-1.367,9.121-2.3,1.115-.348,2.22-.73,3.3-1.177a4.084,4.084,0,0,0,2.788-4.786,72.127,72.127,0,0,0-1.894-7.126q-.867-3.065-1.808-6.107c-1.058-3.434-2.188-6.844-3.256-10.274-2.524-8.1-4.481-16.374-6.727-24.551-1.31-4.772-2.685-9.524-4.036-14.284a29.768,29.768,0,0,1-1.563-9.036,64.915,64.915,0,0,1,1.617-11.241q1.417-6.574,3.165-13.071c2.127-7.9,4.6-15.7,6.778-23.579q1.01-3.651,1.956-7.32c.645-2.494-3.212-3.558-3.857-1.064Z"/><path class="d" d="M47.574,282.523c3.578,14.862,7.453,29.661,11.185,44.485,1.229,4.882,2.437,9.855,1.925,14.93-.536,5.316-2.649,10.5-4.249,15.559-3.332,10.54-6.826,21.027-10.319,31.514q-2.686,8.065-5.358,16.135c-.73,2.214-1.7,4.658-.491,6.89a8.383,8.383,0,0,0,4.626,3.5,39.574,39.574,0,0,0,6.8,1.695c3.257.6,6.542,1.049,9.83,1.446,6.9.831,13.835,1.4,20.775,1.683,5.674.228,12.057.8,16.87-2.793,5.07-3.782,7.964-9.611,10.731-15.123,3.071-6.118,5.948-12.334,8.8-18.559q.7-1.521,1.389-3.043a2.058,2.058,0,0,0-.717-2.736,2.015,2.015,0,0,0-2.736.717c-2.51,5.5-5.031,11-7.654,16.444-1.44,2.991-2.9,5.973-4.459,8.906a38.43,38.43,0,0,1-3.627,5.954c-2.348,2.964-4.935,5.571-8.829,6.164a37.734,37.734,0,0,1-6.307.174c-6.452-.121-12.906-.6-19.325-1.248a121.975,121.975,0,0,1-17.779-2.722,20.386,20.386,0,0,1-2.831-.869,5.036,5.036,0,0,1-1.792-1.165c-.622-.725-.261-1.589-.01-2.418,1.565-5.17,3.394-10.274,5.1-15.4C52.552,382.331,56,372.025,59.3,361.673c1.6-5,3.431-10,4.614-15.112a35.506,35.506,0,0,0-.038-15.27c-1.538-7.593-3.662-15.119-5.573-22.625-1.934-7.595-3.9-15.181-5.79-22.786q-.55-2.208-1.085-4.421c-.6-2.5-4.46-1.442-3.857,1.064Z"/><path class="d" d="M88.984,248.429c-.674-.723-1.32-1.469-1.956-2.226a13.416,13.416,0,0,0-1.7-1.929,3.33,3.33,0,0,0-2.077-.834,4.807,4.807,0,0,0-2.015.564c-.856.377-1.688.8-2.524,1.22A2.014,2.014,0,0,0,78,247.961a2.05,2.05,0,0,0,2.737.717c.714-.356,1.424-.721,2.15-1.053.189-.086.379-.172.57-.253.26-.109-.325.135-.08.047s-.452-.017-.12.021c-.056-.006-.473-.1-.222-.011l-.293-.121q.194.122-.036-.047c-.275-.242.091.1.153.174,1.119,1.259,2.15,2.59,3.3,3.822a2.015,2.015,0,0,0,2.828,0,2.041,2.041,0,0,0,0-2.828Z"/><path class="d" d="M145.534,249.708c.206-.272.62-.789.978-1.212q.635-.749,1.309-1.46a24.3,24.3,0,0,1,2.767-2.62c-.2.152.063-.065.089-.048l-.738.085.209.059c-.249-.153.428.182.374.159.172.073.344.148.52.214a7.589,7.589,0,0,0,2.007.4,7.834,7.834,0,0,0,4.144-.884,2.012,2.012,0,0,0,.718-2.736,2.051,2.051,0,0,0-2.737-.718c-.3.149.014.016-.169.084-.127.046-.255.088-.385.125-.162.046-.326.084-.491.118-.126.026-.286.028-.07.012a6.81,6.81,0,0,1-1.01,0c.217.017.056.013-.069-.014-.165-.035-.329-.073-.491-.12s-.322-.1-.478-.163c.2.08-.057-.031-.115-.057a4.869,4.869,0,0,0-1.372-.4,3.541,3.541,0,0,0-2.764,1.056,36.372,36.372,0,0,0-5.68,6.1,2.007,2.007,0,0,0,.718,2.737,2.06,2.06,0,0,0,2.736-.718Z"/><path class="d" d="M15.4,2.625c0,5.227.072,10.455.127,15.681q.141,13.555.308,27.11.184,15.466.376,30.934.164,13.346.323,26.691c.058,4.946.132,9.893.157,14.84q0,.306,0,.612a2.03,2.03,0,0,0,2,2c8.55,0,17.1-.06,25.649-.1q22.932-.11,45.865-.237,26.288-.141,52.575-.285,22.887-.126,45.775-.248,12.734-.066,25.468-.121l1.07,0a2.03,2.03,0,0,0,2-2c0-4.872-.017-9.743-.03-14.615q-.035-13.273-.077-26.546-.049-15.425-.1-30.85-.048-13.535-.1-27.07c-.022-5.223-.036-10.446-.081-15.669q0-.372-.007-.744a2.032,2.032,0,0,0-2-2c-7.277-.016-14.554.023-21.831.041Q170.588.1,148.312.168,121.7.246,95.088.332,71.168.409,47.246.5q-14.2.051-28.407.121L17.4.625c-2.573.02-2.579,4.02,0,4,8.376-.064,16.753-.081,25.13-.113q23.126-.087,46.252-.16,26.659-.087,53.32-.165,23.167-.069,46.336-.131,12.649-.032,25.3-.053h.955l-2-2c.052,4.569.057,9.139.077,13.709q.057,13.039.1,26.08.056,15.413.1,30.823.043,13.742.082,27.481.022,8.262.037,16.522v.879l2-2c-7.345,0-14.69.062-22.035.1q-22,.114-44,.236-26.232.144-52.466.286-23.711.127-47.421.248-14.431.071-28.865.123l-1.61,0,2,2c0-4.275-.079-8.551-.128-12.825q-.149-12.824-.309-25.646-.189-15.425-.376-30.849-.168-13.993-.322-27.985c-.063-5.842-.137-11.683-.156-17.525,0-.346,0-.692,0-1.038C19.4.051,15.4.047,15.4,2.625Z"/><path class="a" d="M204.366,126.428c.889,1.457.531,1.742.674,3.443.227,2.7,1.2,3.749,3.433,4.949l-.39,1.086c4.094,1.5,9.252,3.5,12.945,5,.5-1.332.91-2.405.91-2.405,1.544-3.191,6.231-18.7,6.676-22.985.565-5.434,1.115-10.329-.8-13.034-2.965-3.6-6.25-6.8-9.694-7.857-3.5-1.075-9.321-.151-11.413,1.546a2.611,2.611,0,0,0-.538.579c-.789,1.2.094,2.613,1.2,4.013,0,0,.276.349.66.837-1.514-.124-4.062.67-4.825,1.889-.871,1.388-.482,4.223.346,5.554l.142.341a4.445,4.445,0,0,0-1.1.45c-1.531.873-2.374,4.3-.839,6.917-2.685.981-3.38,5.237-.445,7.19A11.058,11.058,0,0,1,204.366,126.428Z"/><path class="d" d="M202,118.993c1.195.337,2.364.77,3.52,1.221q.543.212,1.082.432l.351.145c.044.019.361.15.119.049s.079.035.123.053l.292.127q1.336.581,2.646,1.217a2,2,0,1,0,2.019-3.454,55.753,55.753,0,0,0-9.089-3.647A2,2,0,1,0,202,118.993Z"/><path class="d" d="M208.781,99.351a4.1,4.1,0,0,1-.905-1.534c-.035-.268-.016-.027-.062.057a.9.9,0,0,1,.377-.3,9.368,9.368,0,0,1,2.532-.955,14.092,14.092,0,0,1,6.124-.248,13.336,13.336,0,0,1,6.169,3.82c1.673,1.616,3.542,3.272,3.964,5.647a27.76,27.76,0,0,1-.132,7.395c-.074.764-.156,1.527-.234,2.291-.011.106-.049.374.019-.107-.015.1-.029.211-.048.316-.112.647-.235,1.29-.375,1.932-.778,3.556-1.792,7.067-2.844,10.551-.585,1.937-1.193,3.868-1.845,5.784-.262.768-.53,1.535-.816,2.294-.1.275-.211.547-.319.82-.189.475.12-.278,0,0-.056.131-.117.26-.178.389-1.1,2.313,2.349,4.345,3.454,2.018a72,72,0,0,0,3.514-10.093,114.5,114.5,0,0,0,3.14-11.923,55.294,55.294,0,0,0,.793-7.725c.115-2.606.04-5.476-1.267-7.812a19.521,19.521,0,0,0-3.055-3.651,28.764,28.764,0,0,0-3.945-3.467,13.729,13.729,0,0,0-7.606-2.662,17.911,17.911,0,0,0-8.5,1.625,4.643,4.643,0,0,0-2.828,3.567c-.174,1.879.955,3.4,2.047,4.808a2.01,2.01,0,0,0,2.828,0,2.053,2.053,0,0,0,0-2.829Z"/><path class="d" d="M220.961,104.079a47.208,47.208,0,0,0-6.924-3.176,26.151,26.151,0,0,0-3.351-.886,12.418,12.418,0,0,0-3.661-.383c-2.246.235-4.873,1.194-5.824,3.418a8.278,8.278,0,0,0,.62,7c1.3,2.22,4.759.209,3.454-2.019a5.847,5.847,0,0,1-.547-1.863,7.924,7.924,0,0,1,0-1.094c-.014.093.091-.36.121-.449.068-.194-.123.138.074-.13-.259.353.058-.038.139-.11-.265.236.192-.115.228-.136a2.94,2.94,0,0,1,.9-.394,3.948,3.948,0,0,1,1.825-.264c3.828.339,7.5,2.112,10.922,3.936,2.271,1.21,4.294-2.242,2.019-3.454Z"/><path class="d" d="M216.771,111a65.523,65.523,0,0,0-6.4-2.363c-2.182-.714-4.317-1.662-6.665-1.286-4.846.775-5.75,6.643-3.709,10.365a2,2,0,0,0,3.454-2.019,4.286,4.286,0,0,1-.271-3.463c.128-.476-.169.234.069-.17a2.126,2.126,0,0,0,.205-.356c.063-.191-.231.207.014-.022.2-.192.3-.157.018-.055a3.345,3.345,0,0,1,1.907-.362c-.241-.029.189.04.255.055.185.039.367.085.549.135.425.117.841.261,1.257.406q1.258.44,2.528.848a47.369,47.369,0,0,1,4.771,1.741,2.063,2.063,0,0,0,2.737-.717,2.017,2.017,0,0,0-.718-2.737Z"/><path class="d" d="M209.482,133.093a12.968,12.968,0,0,1-1.192-.716c-.364-.252.05.073-.235-.187a5.472,5.472,0,0,1-.4-.4c.24.271-.393-.719-.265-.412a5.261,5.261,0,0,1-.329-1.271c-.11-.779,0-1.863-.167-2.75a5.878,5.878,0,0,0-1.53-2.865,14.473,14.473,0,0,0-2.676-2.027,3.085,3.085,0,0,1-.851-.7,5.072,5.072,0,0,1-.319-.61,1.686,1.686,0,0,1-.116-.887c0-.355-.029.034.011-.168a3.968,3.968,0,0,1,.157-.577c.048-.132.043-.124-.013.023.043-.089.09-.175.14-.259s.1-.167.156-.247q-.147.181-.01.026c.056-.062.417-.379.3-.3-.1.068.385-.2.473-.237a2.015,2.015,0,0,0,.717-2.736,2.045,2.045,0,0,0-2.736-.717,5.887,5.887,0,0,0-3.19,5.594,6.226,6.226,0,0,0,1.147,3.342,11.3,11.3,0,0,0,2.964,2.467,4.762,4.762,0,0,1,1.176,1.013c-.153-.211.2.381.225.443-.088-.208.126.69.066.124a30.364,30.364,0,0,0,.306,3.567,7.568,7.568,0,0,0,4.174,4.922c2.261,1.234,4.282-2.219,2.019-3.454Z"/><path class="a" d="M29.037,119.377c1.647-2.545.954-6.008-.538-6.947a4.475,4.475,0,0,0-1.1-.5l.172-.33c.885-1.3,1.4-4.11.587-5.535-.71-1.25-3.221-2.154-4.743-2.1.409-.467.7-.805.7-.805,1.358-1.575,2.415-3.179.859-4.558-2.016-1.786-7.788-2.963-11.335-2.041a15.07,15.07,0,0,0-5.5,3.031,40.465,40.465,0,0,0-4.526,4.4c-2.032,2.62-1.694,7.534-1.366,12.987.259,4.3,5.433,21.246,6.764,24.776,0,0,.384,1.038.824,2.232,3.742-1.509,8.619-3.394,12.438-4.782-.4-1.114-.742-2.069-.742-2.069,2.282-1.1,3.3-2.1,3.645-4.795.217-1.693-.129-1.993.823-3.41a11.037,11.037,0,0,1,3.166-2.349C32.186,124.756,31.677,120.474,29.037,119.377Z"/><path class="d" d="M27.708,117.725a55.7,55.7,0,0,0-9.23,3.27,2.006,2.006,0,0,0-.718,2.737,2.062,2.062,0,0,0,2.737.717l.317-.137c.177-.076.172-.072,0,0,.235-.1.471-.195.707-.291q.615-.249,1.234-.486,1.217-.466,2.449-.887c1.175-.4,2.361-.781,3.57-1.066a2.017,2.017,0,0,0,1.4-2.46,2.043,2.043,0,0,0-2.46-1.4Z"/><path class="d" d="M25.533,104.574c1.061-1.255,2.214-2.684,2.218-4.42a4.5,4.5,0,0,0-2.325-3.7,16.487,16.487,0,0,0-7.48-2.151,13.87,13.87,0,0,0-8.083,1.682,28.52,28.52,0,0,0-7.66,6.592c-1.876,2.262-2.169,5.4-2.2,8.228a48.067,48.067,0,0,0,.454,7.871,97.388,97.388,0,0,0,2.885,11.657c1.148,4,2.283,8.05,3.742,11.953.893,2.389,4.761,1.355,3.857-1.064a168.806,168.806,0,0,1-5.83-19.774c-.175-.733-.343-1.467-.5-2.2q-.095-.453-.179-.909c-.029-.163-.182-1.165-.121-.673a50.866,50.866,0,0,1-.307-7.259c.051-2.328.333-4.294,1.965-6.023a23.5,23.5,0,0,1,6.594-5.3,11.3,11.3,0,0,1,7.3-.477,11.435,11.435,0,0,1,3.091,1.043,4.75,4.75,0,0,1,.791.512c.052.494-.765,1.26-1.046,1.592-1.653,1.954,1.163,4.8,2.828,2.828Z"/><path class="d" d="M12.337,109.376c3.457-1.654,7.091-3.192,10.975-3.4.151-.008.3-.008.453,0,.554.016-.3-.1.28.029a8.91,8.91,0,0,1,1.186.329,6.542,6.542,0,0,1,.829.423c.386.235-.094-.013.239.177.143.158.172.181.089.069s-.059-.085.047.079c.184.336-.015-.2.074.237.067.329.02-.011.041.2a5.352,5.352,0,0,1-.032,1.252c.029-.2-.093.4-.09.387q-.079.33-.185.653c-.116.353.053-.036-.115.3a5.272,5.272,0,0,1-.28.483,2,2,0,1,0,3.453,2.019,8.289,8.289,0,0,0,.948-6.737c-.8-2.239-3.232-3.425-5.454-3.782a12.345,12.345,0,0,0-3.814.166,26.552,26.552,0,0,0-3.485.736,46.5,46.5,0,0,0-7.178,2.931,2.017,2.017,0,0,0-.718,2.736,2.043,2.043,0,0,0,2.737.718Z"/><path class="d" d="M15.744,116.677a50.926,50.926,0,0,1,5.177-1.671c.9-.25,1.807-.506,2.706-.776.371-.112.741-.222,1.117-.315.211-.051.423-.1.637-.136.14-.023.143-.026.009-.008.109-.012.219-.021.329-.026.184-.01.367-.007.552-.005.351.005.036-.04.359.052.037.01.463.139.415.118.143.062.678.483.246.085.1.091.191.188.287.283-.224-.221-.1-.144.024.072.028.047.228.437.11.186s.083.247.1.31c.042.14.079.282.11.425.027.124.065.545.039.194a8.123,8.123,0,0,1,0,1.157c.025-.373-.041.224-.048.26a6.061,6.061,0,0,1-.159.591,2.723,2.723,0,0,1-.419.851,2,2,0,1,0,3.454,2.019c2.159-3.552,1.478-9.431-3.21-10.432-2.3-.49-4.438.315-6.617.93a64.665,64.665,0,0,0-6.284,1.979,2.06,2.06,0,0,0-1.4,2.46,2.013,2.013,0,0,0,2.46,1.4Z"/><path class="d" d="M22.545,138.861a7.487,7.487,0,0,0,4.388-5,13.736,13.736,0,0,0,.3-2.067c.022-.279.032-.559.045-.838.006-.129.117-.6.005-.139a2.589,2.589,0,0,1,.4-.815,5.545,5.545,0,0,1,1.346-1.013,9.844,9.844,0,0,0,3.02-2.414,6.183,6.183,0,0,0,1.155-3.213,5.9,5.9,0,0,0-3.023-5.659c-2.288-1.169-4.314,2.281-2.019,3.454a3.361,3.361,0,0,1,.485.284c-.3-.223.153.182.208.247q.137.159-.033-.037c.052.078.1.157.144.239s.09.163.13.248q-.1-.242-.027-.042a2.053,2.053,0,0,1,0,1.693c-.126.364.1-.106-.128.254,0,.007-.341.473-.17.27a2.432,2.432,0,0,1-.806.65,17.6,17.6,0,0,0-2.856,1.96,5.894,5.894,0,0,0-1.691,2.831c-.205.841-.112,1.721-.255,2.569a5.752,5.752,0,0,1-.352,1.31c.133-.309-.108.171-.143.229-.047.079-.349.446-.128.2a5.18,5.18,0,0,1-.4.4c-.3.274.1-.047-.227.17a12.3,12.3,0,0,1-1.4.778,2.019,2.019,0,0,0-.718,2.736,2.042,2.042,0,0,0,2.737.717Z"/><path class="d" d="M8.8,154.053c-.457-1.4-.938-2.793-1.424-4.183a24.78,24.78,0,0,1-1.146-3.36v1.064c-.035.258-.452.238.064.057.155-.055.3-.137.454-.2q.564-.253,1.129-.5,1.351-.6,2.707-1.187,3.037-1.319,6.091-2.6c2.026-.848,4.058-1.685,6.1-2.486.831-.325,1.664-.645,2.5-.948a4.605,4.605,0,0,1,1.773-.5l-1.009-.273c-.319-.141-.262-.679-.082-.12.073.227.165.452.246.676q.32.878.635,1.756.642,1.781,1.277,3.563c.858,2.408,4.724,1.371,3.858-1.063q-.827-2.32-1.665-4.636c-.547-1.511-.957-3.345-2.728-3.831-1.205-.331-2.454.235-3.569.642-1.26.46-2.508.952-3.753,1.45-3.123,1.252-6.224,2.56-9.316,3.886q-2.088.9-4.168,1.809A20.517,20.517,0,0,0,3.671,144.5c-1.944,1.294-1.259,3.3-.629,5.074.653,1.84,1.3,3.685,1.9,5.541.8,2.437,4.659,1.394,3.858-1.063Z"/><path class="d" d="M202.421,143.426q.762-2.182,1.517-4.368.336-.974.669-1.948a3.263,3.263,0,0,0,.255-.755c.024-.567-1.216.244-.812.581a4.515,4.515,0,0,0,1.208.345c.507.151,1.011.309,1.516.47,1.243.395,2.481.808,3.717,1.228q4.266,1.447,8.5,2.994,1.915.7,3.822,1.414.745.282,1.489.569l.7.275.366.146q.554.246-.36-.312V143a21.485,21.485,0,0,1-1.044,3.315c-.476,1.44-.949,2.88-1.4,4.326-.774,2.461,3.086,3.514,3.858,1.063.537-1.708,1.1-3.41,1.663-5.11.476-1.436,1.292-3.047.458-4.506-.745-1.305-2.4-1.694-3.723-2.2q-2.083-.8-4.181-1.56-4.667-1.707-9.372-3.305c-1.366-.462-2.735-.917-4.113-1.346a9.789,9.789,0,0,0-3.445-.746c-2.157.16-2.638,2.184-3.218,3.874q-.954,2.781-1.927,5.557c-.849,2.435,3.013,3.482,3.858,1.063Z"/><path class="d" d="M108.378,222.693c2.089,2.047,5.378,2.66,8.187,2.659s6.1-.607,8.191-2.653a2,2,0,0,0-2.829-2.828c-.079.077-.457.38-.161.16s-.2.129-.305.193c-.176.108-.357.207-.541.3-.124.063-.25.119-.376.177.238-.109.218-.085-.012,0a12.205,12.205,0,0,1-1.8.492s-.617.1-.29.055c-.184.024-.369.04-.553.056-.44.036-.882.053-1.323.053a9.923,9.923,0,0,1-3.894-.633c-.089-.032-.553-.25-.085-.024-.105-.05-.211-.1-.315-.147-.2-.1-.406-.21-.6-.33-.085-.053-.342-.295-.434-.294.19,0,.37.321.132.092-.053-.051-.109-.1-.162-.152a2,2,0,1,0-2.829,2.829Z"/><path class="d" d="M115.811,207.624a32.519,32.519,0,0,1,.761,3.489l-.072-.532a2.159,2.159,0,0,1,.013.482l.071-.532a1.091,1.091,0,0,1-.053.217l.2-.478a.86.86,0,0,1-.077.139l.313-.405a.761.761,0,0,1-.114.113l.405-.313a2.344,2.344,0,0,1-.276.146l.477-.2a2,2,0,0,1-.465.136l.531-.072a1.775,1.775,0,0,1-.437,0l.532.072c-.165-.023-.327-.063-.492-.086a1.511,1.511,0,0,0-.8-.035,1.492,1.492,0,0,0-.744.237,2,2,0,0,0-.717,2.736,1.91,1.91,0,0,0,1.195.919c.394.054.776.153,1.177.171A3.785,3.785,0,0,0,119,213.4a2.584,2.584,0,0,0,1.419-1.7,4.164,4.164,0,0,0-.016-1.8c-.189-1.124-.448-2.238-.737-3.34a2,2,0,0,0-2.46-1.4,2.038,2.038,0,0,0-1.4,2.46Z"/><path class="d" d="M97.783,197.773c-.571,1.851-.2,6.108,3.3,6.472,4.634-.025,4.884-5.172,3.325-7.593C103.136,194.67,99.381,193.844,97.783,197.773Z"/><path class="d" d="M134.739,197.792c.569,1.851.2,6.108-3.31,6.469-4.634-.03-4.879-5.178-3.318-7.6C129.39,194.683,133.146,193.861,134.739,197.792Z"/></svg>